<svg width="161" height="161" viewBox="0 0 161 161" fill="none" xmlns="http://www.w3.org/2000/svg">
<g clip-path="url(#clip0_506_932)">
<path d="M160.445 80.2227C160.445 36.0399 124.628 0.222656 80.4448 0.222656C36.262 0.222656 0.444824 36.0399 0.444824 80.2227C0.444824 124.405 36.262 160.223 80.4448 160.223C124.628 160.223 160.445 124.405 160.445 80.2227Z" fill="#0A754E"/>
<mask id="mask0_506_932" style="mask-type:alpha" maskUnits="userSpaceOnUse" x="0" y="0" width="161" height="161">
<path d="M160.445 80.2227C160.445 36.0399 124.628 0.222656 80.4448 0.222656C36.262 0.222656 0.444824 36.0399 0.444824 80.2227C0.444824 124.405 36.262 160.223 80.4448 160.223C124.628 160.223 160.445 124.405 160.445 80.2227Z" fill="white"/>
</mask>
<g mask="url(#mask0_506_932)">
<path fill-rule="evenodd" clip-rule="evenodd" d="M20.7547 164.844C7.95269 179.84 -7.21631 192.64 -7.21631 192.64L39.3907 197.452C39.3907 197.452 57.8187 157.986 63.9967 150.537C70.1747 143.088 74.8827 142.723 85.1787 137.962C95.4757 133.201 116.66 91.444 117.804 89.645C118.948 87.845 120.599 84.627 119.834 83.462C119.07 82.297 117.208 82.834 114.418 85.223C111.627 87.612 103.792 96.017 103.792 96.017L101.48 94.075C101.48 94.075 113.876 73.5781 114.927 71.4541C115.979 69.3291 117.106 66.9741 115.682 65.3841C114.257 63.7921 112.28 65.681 110.653 66.681C109.026 67.681 99.9897 77.049 99.9897 77.049C99.9897 77.049 94.4397 72.3891 96.9917 72.1651C99.5427 71.9421 109.089 58.419 110.961 55.503C112.833 52.587 114.341 50.0601 112.454 48.0811C110.567 46.1011 107.462 49.804 104.635 51.767C101.807 53.73 91.6807 65.339 91.6807 65.339L58.1247 103.015C58.1247 103.015 54.1947 84.443 51.4737 80.865C48.7527 77.287 42.6337 77.779 42.6337 77.779C42.6337 77.779 44.2637 82.433 45.0787 86.143C45.9847 90.268 46.3917 93.41 47.0837 99.2631C48.1937 108.648 42.0477 115.079 41.9927 119.438C41.9497 122.822 42.4177 131.977 39.7287 137.649C33.5797 150.625 33.5567 149.849 20.7547 164.844Z" fill="#CD8B52"/>
<mask id="mask1_506_932" style="mask-type:alpha" maskUnits="userSpaceOnUse" x="-8" y="47" width="129" height="151">
<path fill-rule="evenodd" clip-rule="evenodd" d="M20.7547 164.844C7.95269 179.84 -7.21631 192.64 -7.21631 192.64L39.3907 197.452C39.3907 197.452 57.8187 157.986 63.9967 150.537C70.1747 143.088 74.8827 142.723 85.1787 137.962C95.4757 133.201 116.66 91.444 117.804 89.645C118.948 87.845 120.599 84.627 119.834 83.462C119.07 82.297 117.208 82.834 114.418 85.223C111.627 87.612 103.792 96.017 103.792 96.017L101.48 94.075C101.48 94.075 113.876 73.5781 114.927 71.4541C115.979 69.3291 117.106 66.9741 115.682 65.3841C114.257 63.7921 112.28 65.681 110.653 66.681C109.026 67.681 99.9897 77.049 99.9897 77.049C99.9897 77.049 94.4397 72.3891 96.9917 72.1651C99.5427 71.9421 109.089 58.419 110.961 55.503C112.833 52.587 114.341 50.0601 112.454 48.0811C110.567 46.1011 107.462 49.804 104.635 51.767C101.807 53.73 91.6807 65.339 91.6807 65.339L58.1247 103.015C58.1247 103.015 54.1947 84.443 51.4737 80.865C48.7527 77.287 42.6337 77.779 42.6337 77.779C42.6337 77.779 44.2637 82.433 45.0787 86.143C45.9847 90.268 46.3917 93.41 47.0837 99.2631C48.1937 108.648 42.0477 115.079 41.9927 119.438C41.9497 122.822 42.4177 131.977 39.7287 137.649C33.5797 150.625 33.5567 149.849 20.7547 164.844Z" fill="white"/>
</mask>
<g mask="url(#mask1_506_932)">
<path fill-rule="evenodd" clip-rule="evenodd" d="M20.1699 191.679C20.1699 191.679 57.4449 151.077 63.6009 141.136C69.7579 131.194 63.0149 119.742 63.0149 119.742L89.6059 61.2305L108.279 117.927L105.277 137.489L42.2939 191.465L20.1699 191.679Z" fill="#CB793D"/>
</g>
<path d="M103.249 17.6465H57.3088C54.2884 17.6465 51.8398 20.095 51.8398 23.1155V122.385C51.8398 125.406 54.2884 127.854 57.3088 127.854H103.249C106.269 127.854 108.718 125.406 108.718 122.385V23.1155C108.718 20.095 106.269 17.6465 103.249 17.6465Z" fill="white"/>
<path d="M102.154 19.8359H57.6729C55.6592 19.8359 54.0269 21.4683 54.0269 23.4819V122.019C54.0269 124.033 55.6592 125.665 57.6729 125.665H102.154C104.167 125.665 105.8 124.033 105.8 122.019V23.4819C105.8 21.4683 104.167 19.8359 102.154 19.8359Z" fill="#F3F3F3"/>
<mask id="mask2_506_932" style="mask-type:alpha" maskUnits="userSpaceOnUse" x="54" y="19" width="52" height="107">
<path d="M102.154 19.8359H57.6729C55.6592 19.8359 54.0269 21.4683 54.0269 23.4819V122.019C54.0269 124.033 55.6592 125.665 57.6729 125.665H102.154C104.167 125.665 105.8 124.033 105.8 122.019V23.4819C105.8 21.4683 104.167 19.8359 102.154 19.8359Z" fill="white"/>
</mask>
<g mask="url(#mask2_506_932)">
<path d="M54.0269 19.8359H105.8V125.665H54.0269V19.8359Z" fill="#031D43"/>
<path d="M83.2461 34.623H59.2461C58.1415 34.623 57.2461 35.5185 57.2461 36.623V44.623C57.2461 45.7276 58.1415 46.623 59.2461 46.623H83.2461C84.3507 46.623 85.2461 45.7276 85.2461 44.623V36.623C85.2461 35.5185 84.3507 34.623 83.2461 34.623Z" fill="#F9E7A1"/>
<path d="M100.846 50.623H67.2461C66.1415 50.623 65.2461 51.5185 65.2461 52.623V60.623C65.2461 61.7276 66.1415 62.623 67.2461 62.623H100.846C101.951 62.623 102.846 61.7276 102.846 60.623V52.623C102.846 51.5185 101.951 50.623 100.846 50.623Z" fill="#FFC300"/>
<path d="M100.847 66.623H80.0469C78.9423 66.623 78.0469 67.5185 78.0469 68.623V76.623C78.0469 77.7276 78.9423 78.623 80.0469 78.623H100.847C101.951 78.623 102.847 77.7276 102.847 76.623V68.623C102.847 67.5185 101.951 66.623 100.847 66.623Z" fill="#FFC300"/>
<path d="M60.4448 37.8242H82.0448V39.4242H60.4448V37.8242Z" fill="#FFC300"/>
<path d="M68.4448 53.8242H99.6448V55.4242H68.4448V53.8242ZM81.2458 69.8242H99.6458V71.4242H81.2458V69.8242Z" fill="#F9E7A1"/>
<path d="M60.4448 41.8242H76.4448V43.4242H60.4448V41.8242Z" fill="#FFC300"/>
<path d="M68.4448 57.8242H75.6448V59.4242H68.4448V57.8242ZM81.2458 73.8242H95.6458V75.4242H81.2458V73.8242Z" fill="#F9E7A1"/>
<path opacity="0.5" d="M72.6208 23.4844H61.6848C61.0801 23.4844 60.5898 23.9746 60.5898 24.5794C60.5898 25.1841 61.0801 25.6744 61.6848 25.6744H72.6208C73.2256 25.6744 73.7158 25.1841 73.7158 24.5794C73.7158 23.9746 73.2256 23.4844 72.6208 23.4844Z" fill="#89D0FE"/>
<path fill-rule="evenodd" clip-rule="evenodd" d="M107.283 177.26C107.283 177.26 145.193 160.55 142.907 152.728L142.24 150.466C140.293 143.934 138.788 139.69 136.79 137.753C134.571 135.601 132.026 136.478 129.182 136.28C126.401 136.087 126.499 130.36 120.731 132.611L120.328 132.777C114.152 135.458 114.264 130.634 110.599 131.49C106.986 132.334 105.21 137.225 104.608 136.293C99.0477 127.688 98.8887 89.1936 93.1037 90.2356C87.4057 91.2606 89.2277 107.191 89.7977 119.379L89.8227 119.939C90.1807 128.108 90.1777 138.27 89.8157 150.425C86.9397 146.042 84.3437 142.983 82.0267 141.25C78.5527 138.65 72.7967 139.08 72.4067 140.718C76.0507 145.747 88.0827 168.523 107.283 177.26Z" fill="#041E42"/>
<path opacity="0.5" d="M83.5579 121.285H76.2669C76.0653 121.285 75.9019 121.449 75.9019 121.65C75.9019 121.852 76.0653 122.015 76.2669 122.015H83.5579C83.7594 122.015 83.9229 121.852 83.9229 121.65C83.9229 121.449 83.7594 121.285 83.5579 121.285Z" fill="#E8E8E8"/>
</g>
<path fill-rule="evenodd" clip-rule="evenodd" d="M42.1306 76.9141C41.9076 76.1541 42.7556 75.5291 43.4166 75.9671C43.5942 76.0846 43.7213 76.2644 43.7726 76.4711L45.2336 82.3741L45.6336 83.6721C45.6656 83.7751 45.6736 83.8821 45.6596 83.9891C45.5496 84.7691 44.4546 84.8491 44.2326 84.0931L42.1306 76.9141Z" fill="#FDE5BC"/>
<path fill-rule="evenodd" clip-rule="evenodd" d="M113.045 242.742L150.166 238.79C150.166 238.79 136.668 205.222 135.6 193.77C134.532 182.319 133.525 179.911 136.069 172.166C138.612 164.422 143.57 159.692 141.267 151.832C138.963 143.972 137.341 138.948 135.107 136.785C132.873 134.621 130.314 135.501 127.453 135.301C124.592 135.101 124.757 129.088 118.545 131.778C112.333 134.468 112.444 129.622 108.757 130.48C105.123 131.326 103.339 136.24 102.733 135.303C97.1358 126.656 96.9588 87.9806 91.1398 89.0246C85.3198 90.0686 87.3068 106.554 87.8518 118.866C88.3978 131.178 87.8588 149.495 87.8588 149.495C87.8588 149.495 83.5158 142.887 80.0188 140.273C76.5228 137.66 70.7338 138.089 70.3408 139.735C74.0108 144.789 76.1258 150.516 79.3078 156.15C82.4908 161.784 79.2978 162.735 83.4278 168.21C86.0478 171.684 88.7618 171.985 93.4248 177.316C96.7748 181.146 104.489 195.542 106.997 202.567C112.733 218.639 113.045 242.742 113.045 242.742Z" fill="#CD8B52"/>
<mask id="mask3_506_932" style="mask-type:alpha" maskUnits="userSpaceOnUse" x="70" y="89" width="81" height="154">
<path fill-rule="evenodd" clip-rule="evenodd" d="M113.045 242.742L150.166 238.79C150.166 238.79 136.668 205.222 135.6 193.77C134.532 182.319 133.525 179.911 136.069 172.166C138.612 164.422 143.57 159.692 141.267 151.832C138.963 143.972 137.341 138.948 135.107 136.785C132.873 134.621 130.314 135.501 127.453 135.301C124.592 135.101 124.757 129.088 118.545 131.778C112.333 134.468 112.444 129.622 108.757 130.48C105.123 131.326 103.339 136.24 102.733 135.303C97.1358 126.656 96.9588 87.9806 91.1398 89.0246C85.3198 90.0686 87.3068 106.554 87.8518 118.866C88.3978 131.178 87.8588 149.495 87.8588 149.495C87.8588 149.495 83.5158 142.887 80.0188 140.273C76.5228 137.66 70.7338 138.089 70.3408 139.735C74.0108 144.789 76.1258 150.516 79.3078 156.15C82.4908 161.784 79.2978 162.735 83.4278 168.21C86.0478 171.684 88.7618 171.985 93.4248 177.316C96.7748 181.146 104.489 195.542 106.997 202.567C112.733 218.639 113.045 242.742 113.045 242.742Z" fill="white"/>
</mask>
<g mask="url(#mask3_506_932)">
<path fill-rule="evenodd" clip-rule="evenodd" d="M63.856 169.854L59.396 137.463L70.659 131.109L83.424 141.82L87.861 149.494C87.861 149.494 87.738 158.945 90.615 168.599C93.493 178.254 99.958 189.281 99.958 189.281L63.856 169.854Z" fill="#CB793D"/>
</g>
<path fill-rule="evenodd" clip-rule="evenodd" d="M69.3016 138.802C69.2315 138.688 69.1848 138.562 69.1643 138.429C69.1437 138.297 69.1498 138.162 69.1821 138.032C69.2143 137.902 69.2722 137.78 69.3522 137.673C69.4323 137.565 69.5329 137.475 69.6483 137.407C69.7636 137.339 69.8913 137.295 70.024 137.277C70.1566 137.259 70.2915 137.268 70.4208 137.302C70.5501 137.337 70.6711 137.397 70.7769 137.479C70.8826 137.561 70.9709 137.664 71.0366 137.78L73.8526 142.852L74.5356 143.905C74.6169 144.032 74.6645 144.177 74.6736 144.326C74.7256 145.224 73.5456 145.6 73.0696 144.837L69.3016 138.802ZM88.8326 94.9715C89.2466 95.3195 89.7406 95.9435 90.8356 95.9505C91.9316 95.9565 92.7026 95.4085 93.0486 94.9965C93.3946 94.5845 93.4086 93.5585 93.3556 91.8695C93.3026 90.1815 93.2616 88.8515 92.8466 88.5035C92.4326 88.1565 91.9406 87.5315 90.8436 87.5255C89.7466 87.5185 88.9766 88.0655 88.6306 88.4785C88.2846 88.8915 88.2626 89.6275 88.3176 91.4115C88.3736 93.1955 88.4176 94.6235 88.8326 94.9715Z" fill="#FDE5BC"/>
</g>
</g>
<defs>
<clipPath id="clip0_506_932">
<rect width="161" height="161" fill="white"/>
</clipPath>
</defs>
</svg>
