<svg width="66" height="181" viewBox="0 0 66 181" fill="none" xmlns="http://www.w3.org/2000/svg">
<path id="Vector" opacity="0.35" d="M206.423 142.196C201.434 151.555 195.825 160.372 189.675 168.622C176.901 185.752 161.791 200.438 145.03 212.476C122.244 228.854 96.4092 240.328 69.2704 246.373L8.61576 214.039L13.3953 190.851L22.4127 147.112L34.9776 86.1566L0.528132 67.7923L2.01398 60.5764L14.3234 0.868615L108.11 50.8643L103.397 73.7231L94.3151 117.788L81.7502 178.743L81.5843 179.549C81.8964 179.42 82.2071 179.287 82.5114 179.149C102.675 170.43 120.964 157.155 135.679 139.838C142.341 131.999 148.27 123.327 153.305 113.88C158.844 103.491 162.995 92.7352 165.829 81.8189L166.295 81.8811L225.862 89.6068C224.312 96.6308 222.384 103.619 220.063 110.544C216.464 121.283 211.928 131.87 206.423 142.196Z" fill="#E4E1DB"/>
</svg>
