<svg width="24" height="24" viewBox="0 0 24 24" fill="none" xmlns="http://www.w3.org/2000/svg">
  <g clip-path="url(#clip0_160_1036)">
    <path d="M19.24 3.06445H16.61V10.1445H19.24V3.06445Z" fill="#F5B237" stroke="#001F13" stroke-miterlimit="10"/>
    <path d="M19.9799 21.1045H4.00991C3.80991 21.1045 3.65991 20.9445 3.65991 20.7545V10.1645C3.65991 9.56453 3.92991 8.99453 4.38991 8.61453L10.8399 3.34453C11.5799 2.74453 12.6299 2.74453 13.3699 3.34453L19.5999 8.41453C20.0699 8.79453 20.3399 9.36453 20.3399 9.96453V20.7545C20.3399 20.9545 20.1799 21.1045 19.9899 21.1045H19.9799Z" fill="#F5B237" stroke="#001F13" stroke-miterlimit="10"/>
    <path d="M9.99001 14.0342H14.1C14.8 14.0342 15.37 14.6042 15.37 15.3042V21.1142H8.64001V15.3942C8.64001 14.6442 9.25001 14.0442 9.99001 14.0442V14.0342Z" fill="#F5B237" stroke="#001F13" stroke-miterlimit="10"/>
    <path d="M3.76001 21.1045H20.24" stroke="#001F13" stroke-miterlimit="10"/>
    <path d="M14.66 9.61426H9.32996" stroke="#001F13" stroke-miterlimit="10" stroke-linecap="round"/>
    <path d="M22.04 21.1045H1.95996" stroke="#001F13" stroke-miterlimit="10" stroke-linecap="square"/>
  </g>
  <defs>
    <clipPath id="clip0_160_1036">
      <rect width="20.08" height="19.21" fill="white" transform="translate(1.95996 2.39453)"/>
    </clipPath>
  </defs>
</svg>
