<svg width="128" height="128" viewBox="0 0 128 128" fill="none" xmlns="http://www.w3.org/2000/svg">
<g clip-path="url(#clip0_1319_8962)">
<mask id="mask0_1319_8962" style="mask-type:luminance" maskUnits="userSpaceOnUse" x="0" y="0" width="128" height="128">
<path d="M128 0H0V128H128V0Z" fill="white"/>
</mask>
<g mask="url(#mask0_1319_8962)">
<g style="mix-blend-mode:luminosity">
<path d="M89.029 103.448H32.6552C31.1888 103.448 30 102.26 30 100.793V24.6552C30 23.1888 31.1888 22 32.6552 22H76.6726L91.6842 35.8569V100.793C91.6842 102.26 90.4955 103.448 89.029 103.448Z" fill="#F5F8FF" stroke="#3B9171" stroke-width="2"/>
<path fill-rule="evenodd" clip-rule="evenodd" d="M36.7852 39.0229C36.7852 38.0136 37.6034 37.1953 38.6127 37.1953H73.9995C75.0089 37.1953 75.8271 38.0136 75.8271 39.0229C75.8271 40.0322 75.0089 40.8505 73.9995 40.8505H38.6127C37.6034 40.8505 36.7852 40.0322 36.7852 39.0229ZM36.7852 50.2878C36.7852 49.2784 37.6034 48.4602 38.6127 48.4602H84.2731C85.2825 48.4602 86.1007 49.2784 86.1007 50.2878C86.1007 51.2971 85.2825 52.1154 84.2731 52.1154H38.6127C37.6034 52.1154 36.7852 51.2971 36.7852 50.2878ZM36.7852 61.5527C36.7852 60.5433 37.6034 59.7251 38.6127 59.7251H51.1693C52.1787 59.7251 52.9969 60.5433 52.9969 61.5527C52.9969 62.562 52.1787 63.3803 51.1693 63.3803H38.6127C37.6034 63.3803 36.7852 62.562 36.7852 61.5527ZM57.3323 61.5527C57.3323 60.5433 58.1506 59.7251 59.1599 59.7251H84.2731C85.2825 59.7251 86.1007 60.5433 86.1007 61.5527C86.1007 62.562 85.2825 63.3803 84.2731 63.3803H59.1599C58.1506 63.3803 57.3323 62.562 57.3323 61.5527ZM36.7852 72.8176C36.7852 71.8082 37.6034 70.99 38.6127 70.99H71.7165C72.7259 70.99 73.5441 71.8082 73.5441 72.8176C73.5441 73.8269 72.7259 74.6452 71.7165 74.6452H38.6127C37.6034 74.6452 36.7852 73.8269 36.7852 72.8176ZM77.8795 72.8176C77.8795 71.8082 78.6977 70.99 79.7071 70.99H84.2731C85.2825 70.99 86.1007 71.8082 86.1007 72.8176C86.1007 73.8269 85.2825 74.6452 84.2731 74.6452H79.7071C78.6977 74.6452 77.8795 73.8269 77.8795 72.8176ZM36.7852 82.956C36.7852 81.9466 37.6034 81.1284 38.6127 81.1284H80.8486C81.8579 81.1284 82.6762 81.9466 82.6762 82.956C82.6762 83.9653 81.8579 84.7836 80.8486 84.7836H38.6127C37.6034 84.7836 36.7852 83.9653 36.7852 82.956ZM36.7852 93.0944C36.7852 92.085 37.6034 91.2668 38.6127 91.2668H69.4335C70.4428 91.2668 71.2611 92.085 71.2611 93.0944C71.2611 94.1037 70.4428 94.922 69.4335 94.922H38.6127C37.6034 94.922 36.7852 94.1037 36.7852 93.0944Z" fill="#8EC0AE"/>
<path d="M36.7852 39.0229C36.7852 38.0136 37.6034 37.1953 38.6127 37.1953H73.9995C75.0089 37.1953 75.8271 38.0136 75.8271 39.0229C75.8271 40.0322 75.0089 40.8505 73.9995 40.8505H38.6127C37.6034 40.8505 36.7852 40.0322 36.7852 39.0229Z" fill="#3B9171"/>
<path d="M77.0645 21L92.6851 35.4191H81.0645C78.8553 35.4191 77.0645 33.6282 77.0645 31.4191V21Z" fill="#3B9171"/>
<path d="M10.8988 32.5173L19.5182 23.8979C20.014 23.402 20.818 23.402 21.3139 23.8979C21.8097 24.3937 21.8097 25.1977 21.3139 25.6936L12.6945 34.313C12.1986 34.8088 11.3946 34.8088 10.8987 34.313C10.4029 33.8171 10.4029 33.0131 10.8988 32.5173Z" fill="#06402B"/>
<path d="M19.5173 34.3122L10.8979 25.6928C10.402 25.1969 10.402 24.3929 10.8979 23.8971C11.3937 23.4012 12.1977 23.4012 12.6936 23.8971L21.313 32.5165C21.8088 33.0124 21.8088 33.8163 21.313 34.3122C20.8171 34.8081 20.0131 34.8081 19.5173 34.3122Z" fill="#06402B"/>
<path d="M26.3412 62.6824C28.7388 62.6824 30.6824 60.7388 30.6824 58.3412C30.6824 55.9436 28.7388 54 26.3412 54C23.9436 54 22 55.9436 22 58.3412C22 60.7388 23.9436 62.6824 26.3412 62.6824Z" fill="#0A754E" stroke="#8EC0AE" stroke-width="4"/>
<path d="M116.608 75.2155C118.6 75.2155 120.216 73.6003 120.216 71.6078C120.216 69.6153 118.6 68 116.608 68C114.615 68 113 69.6153 113 71.6078C113 73.6003 114.615 75.2155 116.608 75.2155Z" stroke="#06402B" stroke-width="4"/>
<path d="M10.1101 80.2202C10.7232 80.2202 11.2202 79.7232 11.2202 79.1101C11.2202 78.497 10.7232 78 10.1101 78C9.497 78 9 78.497 9 79.1101C9 79.7232 9.497 80.2202 10.1101 80.2202Z" stroke="#5BA388" stroke-width="3"/>
<path d="M102.78 47.271L110.271 39.7803C110.701 39.3493 111.4 39.3493 111.831 39.7803C112.262 40.2112 112.262 40.9099 111.831 41.3408L104.34 48.8315C103.909 49.2625 103.211 49.2625 102.78 48.8315C102.349 48.4006 102.349 47.7019 102.78 47.271Z" fill="#0A754E"/>
<path d="M110.271 48.8315L102.78 41.3408C102.349 40.9099 102.349 40.2112 102.78 39.7803C103.211 39.3493 103.91 39.3493 104.341 39.7803L111.832 47.271C112.262 47.7019 112.262 48.4006 111.832 48.8315C111.401 49.2625 110.702 49.2625 110.271 48.8315Z" fill="#0A754E"/>
<path d="M37.6611 116.015L44.014 109.662C44.3795 109.296 44.9721 109.296 45.3375 109.662L45.3375 109.662C45.703 110.027 45.703 110.62 45.3375 110.985L38.9846 117.338C38.6192 117.704 38.0266 117.704 37.6611 117.338C37.2956 116.973 37.2956 116.38 37.6611 116.015Z" fill="#06402B"/>
<path d="M44.0147 117.339L37.6618 110.986C37.2963 110.62 37.2963 110.028 37.6618 109.662L37.6618 109.662C38.0272 109.297 38.6198 109.297 38.9853 109.662L45.3382 116.015C45.7037 116.381 45.7037 116.973 45.3382 117.339C44.9727 117.704 44.3801 117.704 44.0147 117.339Z" fill="#06402B"/>
</g>
</g>
</g>
<defs>
<clipPath id="clip0_1319_8962">
<rect width="128" height="128" fill="white"/>
</clipPath>
</defs>
</svg>
