<svg width="171" height="132" viewBox="0 0 171 132" fill="none" xmlns="http://www.w3.org/2000/svg">
<g clip-path="url(#clip0_4787_39115)">
<path d="M101.621 76C113.771 76 123.621 58.9868 123.621 38C123.621 17.0132 113.771 0 101.621 0C89.4708 0 79.6211 17.0132 79.6211 38C79.6211 58.9868 89.4708 76 101.621 76Z" fill="#8C9A95"/>
<path d="M137.741 17.5699L141.931 13.3799H141.951H141.961C142.861 12.4799 144.061 12.0699 145.251 12.1299V131.56H58.7308C49.1108 131.56 41.3008 123.76 41.3008 114.13V18.4599C41.3008 17.3199 41.7608 16.2099 42.5708 15.3999L45.3208 12.6499C47.0208 10.9499 49.7608 10.9499 51.4608 12.6499L54.9808 16.1699C56.6808 17.8699 59.4208 17.8699 61.1208 16.1699L64.7208 12.5699C66.4208 10.8699 69.1608 10.8699 70.8608 12.5699L74.2108 15.9199C75.9108 17.6199 78.6508 17.6199 80.3508 15.9199L83.2508 13.0199C84.9508 11.3199 87.6908 11.3199 89.3908 13.0199L92.7408 16.3699C94.4408 18.0699 97.1808 18.0699 98.8808 16.3699L101.911 13.3399C103.611 11.6399 106.351 11.6399 108.051 13.3399L112.101 17.3899C113.801 19.0899 116.541 19.0899 118.241 17.3899L121.761 13.8699C123.461 12.1699 126.201 12.1699 127.901 13.8699L131.601 17.5699C133.301 19.2699 136.041 19.2699 137.741 17.5699Z" fill="#096A47"/>
<path d="M169.3 15.6001L167.19 13.4901C165.49 11.7901 162.75 11.7901 161.05 13.4901L157.7 16.8401C156 18.5401 153.26 18.5401 151.56 16.8401L148.09 13.3701C147.3 12.5801 146.28 12.1701 145.24 12.1201V131.55H153.15C162.78 131.55 170.58 123.74 170.58 114.12V18.6801C170.58 17.5301 170.13 16.4301 169.31 15.6201H169.3V15.6001Z" fill="#3B9171"/>
<path d="M123.618 43L108.864 48.6903L108.755 48.7459C109.437 51.6954 109.818 54.7701 109.818 57.9422C109.818 60.8221 109.505 63.6185 108.932 66.3315C107.665 72.3 105.063 77.7537 101.467 82.3866C101.412 82.4562 101.358 82.5397 101.303 82.6092L101.235 82.3866L96.6169 66.3315L93.2792 54.7283L91.549 48.7181H63.6211L68.1441 64.4393L68.7026 66.3315H78.961L83.5793 82.3866L86.8898 93.8924L88.6472 100H106.698C112.243 95.1306 116.807 89.1342 120.076 82.3727C122.474 77.392 124.163 71.9939 125.008 66.3175C125.417 63.5907 125.621 60.7942 125.621 57.9282C125.621 54.784 125.362 51.6954 124.872 48.7042C124.558 46.7703 124.136 44.8782 123.632 43.0139L123.618 43Z" fill="#F5B237"/>
<path d="M102 0H38.5453C29.9603 0 23 6.2652 23 13.9929V109H79.5045C87.2771 109 93.5855 103.322 93.5855 96.3252V12.088C93.7359 5.13674 96.0326 0.640964 102 0Z" fill="#D9DDDC"/>
<path d="M34.2891 25.185C34.2891 26.944 35.715 28.37 37.4741 28.37C39.2331 28.37 40.6591 26.944 40.6591 25.185C40.6591 23.426 39.2331 22 37.4741 22C35.715 22 34.2891 23.426 34.2891 25.185Z" fill="#F5F6F6"/>
<path d="M79.3932 22H47.8432C46.0842 22 44.6582 23.426 44.6582 25.185C44.6582 26.944 46.0842 28.37 47.8432 28.37H79.3932C81.1522 28.37 82.5782 26.944 82.5782 25.185C82.5782 23.426 81.1522 22 79.3932 22Z" fill="#F5F6F6"/>
<path d="M34.2891 40.5551C34.2891 42.3141 35.715 43.7401 37.4741 43.7401C39.2331 43.7401 40.6591 42.3141 40.6591 40.5551C40.6591 38.7961 39.2331 37.3701 37.4741 37.3701C35.715 37.3701 34.2891 38.7961 34.2891 40.5551Z" fill="#F5F6F6"/>
<path d="M79.3932 37.3701H47.8432C46.0842 37.3701 44.6582 38.7961 44.6582 40.5551C44.6582 42.3141 46.0842 43.7401 47.8432 43.7401H79.3932C81.1522 43.7401 82.5782 42.3141 82.5782 40.5551C82.5782 38.7961 81.1522 37.3701 79.3932 37.3701Z" fill="#F5F6F6"/>
<path d="M34.2891 55.9252C34.2891 57.6843 35.715 59.1102 37.4741 59.1102C39.2331 59.1102 40.6591 57.6843 40.6591 55.9252C40.6591 54.1662 39.2331 52.7402 37.4741 52.7402C35.715 52.7402 34.2891 54.1662 34.2891 55.9252Z" fill="#F5F6F6"/>
<path d="M79.3932 52.7402H47.8432C46.0842 52.7402 44.6582 54.1662 44.6582 55.9252C44.6582 57.6843 46.0842 59.1102 47.8432 59.1102H79.3932C81.1522 59.1102 82.5782 57.6843 82.5782 55.9252C82.5782 54.1662 81.1522 52.7402 79.3932 52.7402Z" fill="#F5F6F6"/>
<path d="M34.2891 71.2949C34.2891 73.0539 35.715 74.4799 37.4741 74.4799C39.2331 74.4799 40.6591 73.0539 40.6591 71.2949C40.6591 69.5358 39.2331 68.1099 37.4741 68.1099C35.715 68.1099 34.2891 69.5358 34.2891 71.2949Z" fill="#F5F6F6"/>
<path d="M79.3932 68.1099H47.8432C46.0842 68.1099 44.6582 69.5358 44.6582 71.2949C44.6582 73.0539 46.0842 74.4799 47.8432 74.4799H79.3932C81.1522 74.4799 82.5782 73.0539 82.5782 71.2949C82.5782 69.5358 81.1522 68.1099 79.3932 68.1099Z" fill="#F5F6F6"/>
<path d="M0.000407934 91H79.0004V109H13.3169C5.96989 109 0 105.995 0 98L0.000407934 91Z" fill="#F5F6F6"/>
<path d="M80 109C86.6274 109 92 102.732 92 95C92 87.268 86.6274 81 80 81C73.3726 81 68 87.268 68 95C68 102.732 73.3726 109 80 109Z" fill="#D9DDDC"/>
</g>
<defs>
<clipPath id="clip0_4787_39115">
<rect width="170.58" height="131.56" fill="white"/>
</clipPath>
</defs>
</svg>
